PathFileType	4	(X/Y/Z)	C:\Users\WrightLab\Desktop\Jo\P5V124.trc
DataRate	CameraRate	NumFrames	NumMarkers	Units	OrigDataRate	OrigDataStartFrame	OrigNumFrames
100.00	100.00	       11	19	mm	100.00	157	       624
Frame#	Time	Headset_Front			Headset_Back			Headset_Left			Headset_Right			Left_Shoulder			Right_Shoulder			Sternum			C7			Left Elbow			Right Elbow			Left Wrist			Right Wrist			Left ASIS			Right ASIS			S2			Left Knee			Right Knee			Left Ankle			Right Ankle			
		X1	Y1	Z1	X2	Y2	Z2	X3	Y3	Z3	X4	Y4	Z4	X5	Y5	Z5	X6	Y6	Z6	X7	Y7	Z7	X8	Y8	Z8	X9	Y9	Z9	X10	Y10	Z10	X11	Y11	Z11	X12	Y12	Z12	X13	Y13	Z13	X14	Y14	Z14	X15	Y15	Z15	X16	Y16	Z16	X17	Y17	Z17	X18	Y18	Z18	X19	Y19	Z19	

157	1.560	194.73154	1757.96692	-689.71808	392.96234	1488.27734	-799.25128							148.01123	1513.95422	-821.58783				236.74380	1314.16626	-633.46124	310.77728	1654.80945	-600.53931	472.73126	1208.68262	-844.53033	-118.69070	1192.29626	-714.98334	529.60321	984.91711	-754.47516	-76.05458	1003.97833	-560.71539	365.82684	921.76129	-714.39935	115.30695	936.10266	-598.69098	140.55090	980.48987	-915.04053	366.73123	486.22934	-815.73358	226.79575	561.89905	-469.21414	184.95894	89.84312	-991.25854	186.06232	126.52539	-547.95300	
158	1.570	197.40561	1757.95898	-683.04608	396.53900	1488.31543	-791.57031							151.91229	1513.40918	-815.02081	3.17874	1448.40991	-630.88977	239.68663	1314.37500	-625.58997	313.15057	1654.96033	-592.92542	475.92621	1208.17017	-836.11298	-114.68438	1191.72717	-709.85944	532.51532	984.19263	-745.51648	-73.78271	1003.76837	-555.95947	368.26471	920.84576	-708.28925	118.13766	936.57312	-589.66345	144.11226	980.14532	-908.53406	365.02039	484.90524	-810.64270	228.72145	560.46844	-463.70151	185.63202	90.61910	-989.85144	199.13641	123.33360	-526.95679	
159	1.580	200.22589	1757.33228	-676.02002	400.15549	1488.05408	-784.37836							155.72923	1513.15967	-808.55133	6.05206	1447.61926	-624.63684	243.88168	1314.52246	-619.18530	315.26611	1655.13367	-586.03522	480.65405	1207.86658	-825.98224	-111.56242	1191.51477	-705.01050	536.53967	984.25684	-737.05829	-70.31542	1003.21167	-550.89124	372.29938	921.23297	-700.03992	121.21162	935.66876	-583.33746	147.98694	979.71375	-902.59589	362.44888	482.90677	-804.18018	229.77132	558.04565	-458.69473	185.19582	91.94164	-989.75745	211.03917	119.00106	-504.62387	
160	1.590	202.92969	1756.74976	-668.89124	403.69336	1487.93799	-776.00311							159.42154	1512.42114	-801.14020				245.02985	1312.98779	-610.63489	317.65048	1654.83215	-578.02881	483.84158	1207.19958	-818.94568	-108.13802	1190.77844	-699.45758	539.17548	983.87463	-728.21057	-67.05366	1002.14081	-545.96844	373.36215	920.51288	-692.83960	124.29400	935.74731	-577.11316	152.13614	979.60815	-896.28827	359.11520	481.37817	-799.87769	230.35699	554.59570	-454.01706	186.22301	93.38706	-989.17023	223.32425	115.88313	-484.49814	
161	1.600	205.16353	1756.61060	-662.61951	407.10480	1487.91785	-767.99469							162.53700	1512.39600	-795.05432	27.14460	1440.76270	-607.93842	249.51680	1313.89111	-603.21039	319.65372	1655.09338	-570.61914	487.32910	1206.74365	-810.00500	-104.41729	1190.55627	-693.77094	542.52191	983.33368	-719.38947	-64.24689	1001.20062	-540.81488	376.42203	920.67859	-684.71893	126.95793	935.17584	-569.94659	156.42162	978.76563	-890.03839	356.33936	479.69678	-794.59521	231.19673	551.45636	-449.55304	186.54361	95.11773	-988.65265	234.46158	114.21886	-466.70587	
162	1.610	207.49442	1756.06079	-656.04089	410.27310	1487.70227	-761.06439							166.35381	1511.51550	-787.75714	29.52042	1440.89685	-601.94983	252.01527	1313.64331	-595.56702	321.73575	1654.82910	-562.80957	490.47690	1207.33411	-802.49213	-101.46812	1189.97046	-688.90637	545.27515	983.09009	-710.24457	-60.12127	1000.15265	-534.72876	380.80594	920.75525	-683.55432	129.75822	934.70593	-562.83948	160.56816	978.59308	-882.90106	353.34097	478.68472	-789.17596	231.30182	547.87610	-445.81116	187.05518	97.13467	-987.85767	245.86777	113.17308	-450.25089	
163	1.620	210.02135	1755.19348	-648.00824	413.51431	1487.19922	-752.93378							169.31111	1510.89380	-780.61139	32.98221	1439.77942	-594.48914	255.62544	1312.71228	-588.21765	323.65292	1654.48743	-555.64105	494.16843	1206.52625	-792.78119	-97.77738	1188.59253	-683.27319	548.20642	982.53247	-700.96332	-57.80694	999.48938	-530.12122	382.19263	920.25928	-672.61987	133.72679	935.44092	-552.40021	164.97209	977.80432	-876.32416	350.14499	478.29678	-784.07153	230.89607	544.39948	-441.93784	188.47205	98.68829	-986.35596	255.00404	111.45802	-436.34683	
164	1.630	211.98091	1754.98157	-641.59247	416.72348	1486.90198	-744.32550							172.21196	1510.20959	-773.66309	34.04498	1438.76111	-588.09021	258.41821	1313.17200	-579.95441	325.56479	1654.39001	-547.65472	497.05835	1206.32434	-784.33307	-94.66846	1187.78931	-677.23425	551.26044	982.39221	-692.15826	-54.77430	998.44312	-524.24036	384.44211	921.59302	-661.95685	136.69395	934.11279	-544.96313	168.98738	976.90839	-869.19385	347.63232	477.73026	-778.52112	231.76898	541.30048	-437.00262	189.22322	100.82808	-985.19531	264.40051	110.24794	-423.12912	
165	1.640	213.81453	1754.74304	-634.65588	419.28333	1487.18140	-737.53601							175.13622	1509.30676	-766.46698	35.74078	1439.22668	-581.75580	261.56833	1313.28870	-571.95410	327.17023	1654.27490	-540.28369	500.66232	1206.54175	-776.48090	-91.45396	1186.69531	-671.10107	553.63214	981.63275	-682.66913	-52.11477	997.08813	-518.05298	388.58292	919.93292	-659.94781	138.73174	933.45276	-536.61926	173.63667	976.24811	-861.86133	345.88791	477.66245	-773.13641	232.36011	539.12524	-432.08139	190.03792	102.19086	-984.87402	271.82336	109.28418	-412.46353	
166	1.650	215.69781	1753.95801	-627.76080	422.09094	1486.83496	-728.98389							177.95819	1508.04675	-759.19238	38.71124	1437.86279	-574.66412	265.33197	1312.27759	-564.18188	328.83508	1654.37402	-532.26135	503.53833	1205.69885	-766.91406	-87.96460	1185.19324	-664.16040	557.90375	981.89215	-673.80951	-49.40532	995.29498	-512.24646				141.29747	932.85919	-526.87274	177.94855	974.90894	-855.04590	344.64832	477.43387	-766.90100	234.18362	536.36859	-427.44113	191.68486	104.96367	-983.97815	279.39072	108.35541	-403.91074	
167	1.660	217.55400	1753.57825	-619.29901	424.81332	1486.27441	-720.89716							180.94664	1507.20422	-751.08698	40.84222	1436.87341	-567.42871	267.68008	1313.05664	-554.91150	330.52652	1654.00195	-523.67841	506.93942	1205.42554	-757.84344	-84.54490	1184.38782	-658.57739	560.43219	981.12341	-664.30835	-46.46225	994.23792	-505.83551				144.42709	932.61206	-518.39978	181.94521	973.96063	-847.17767	340.69345	477.50958	-761.27490	235.56081	534.02112	-421.95975	192.73050	106.92357	-982.93427	286.85086	104.51994	-398.85910	
